Coordinates
nRows=17
nColumns=24

# SIMM Motion File Header:
name Coordinates
datacolumns 24
datarows 17
otherdata 1
range 1.25600000000000000000 1.27200000000000000000

Units are S.I. units (second, meters, Newtons, ...)
Angles are in degrees.

endheader
time	pelvis_tx	pelvis_ty	pelvis_tz	pelvis_tilt	pelvis_list	pelvis_rotation	hip_flexion_r	hip_adduction_r	hip_rotation_r	knee_angle_r	ankle_angle_r	subtalar_angle_r	mtp_angle_r	hip_flexion_l	hip_adduction_l	hip_rotation_l	knee_angle_l	ankle_angle_l	subtalar_angle_l	mtp_angle_l	lumbar_extension	lumbar_bending	lumbar_rotation
      1.25600000000000000000	      2.03683543223647460000	      0.89836873802410333000	     -0.25882330311178392000	      1.10226070797016920000	     -0.80126319976222993000	      4.35538910964677760000	     -0.61111385831402698000	      3.38153542394377340000	      7.11817945810317540000	    -10.72723034695561300000	      9.85733868688148540000	     -0.00000000000007781654	      0.00000000000010510067	      8.47422668019216550000	     -7.08980739804525580000	     -5.06932338851236520000	    -40.09887884948933800000	     12.74449310287504400000	     -0.00000000000011469687	     -0.00000000000029964455	     -9.26695827884423730000	      2.43914620527123340000	      0.48928108144993671000
      1.25699999999999990000	      2.03725640191294090000	      0.89836439298038440000	     -0.25886697720936191000	      1.10455386832081140000	     -0.79680664507758237000	      4.35835622713188720000	     -0.64558537099956204000	      3.37423551394012790000	      7.10026875206871290000	    -10.72261751328109400000	      9.87200902935269480000	     -0.00000000000007783179	      0.00000000000010526724	      8.56220048124910530000	     -7.07410424325427020000	     -5.05914735321252800000	    -40.06308372828794300000	     12.75998743563262900000	     -0.00000000000011477113	     -0.00000000000030037157	     -9.27653924823784590000	      2.43447933234978600000	      0.49219519792355831000
      1.25800000000000000000	      2.03767692666117160000	      0.89835988840324765000	     -0.25891025047583205000	      1.10677834136261930000	     -0.79236712586757740000	      4.36111105703740960000	     -0.67988024134911862000	      3.36697979411966710000	      7.08243571928321810000	    -10.71818179541019200000	      9.88672459008622260000	     -0.00000000000007786550	      0.00000000000010550989	      8.64997779031191170000	     -7.05831125319150220000	     -5.04876438293401720000	    -40.02628812643555300000	     12.77447650369679800000	     -0.00000000000011484496	     -0.00000000000030109917	     -9.28604509212013870000	      2.42965209493796990000	      0.49537520263647616000
      1.25899999999999990000	      2.03809701585377830000	      0.89835522494930053000	     -0.25895310515628384000	      1.10893286471424980000	     -0.78794219574102564000	      4.36364895832657580000	     -0.71399897593162398000	      3.35976762616120790000	      7.06468573352580000000	    -10.71392162483887500000	      9.90148757305588840000	     -0.00000000000007789356	      0.00000000000010580881	      8.73755448478495820000	     -7.04242871993410890000	     -5.03817788599116500000	    -39.98849087640352500000	     12.78796449719646800000	     -0.00000000000011491882	     -0.00000000000030182726	     -9.29547333280835990000	      2.42465644314178920000	      0.49882966238696569000
      1.26000000000000000000	      2.03851667881804930000	      0.89835040336494576000	     -0.25899552450670610000	      1.11101628040589650000	     -0.78352946599955098000	      4.36596538413150540000	     -0.74794224011254506000	      3.35259832768826940000	      7.04702408906147950000	    -10.70983527190163900000	      9.91629997732126970000	     -0.00000000000007792916	      0.00000000000010616258	      8.82492633395496640000	     -7.02645688073283560000	     -5.02739123912157200000	    -39.94969087153754100000	     12.80045624497482700000	     -0.00000000000011499297	     -0.00000000000030255434	     -9.30482160791185460000	      2.41948471722583980000	      0.50256670103246925000
      1.26099999999999990000	      2.03893592483011870000	      0.89834542448591392000	     -0.25903749282740074000	      1.11302753650104710000	     -0.77912661084500046000	      4.36805588692226990000	     -0.78171085855209987000	      3.34547117523687600000	      7.02945599290796700000	    -10.70592084527867600000	      9.93116359955854300000	     -0.00000000000007792664	      0.00000000000010648214	      8.91208900037068300000	     -7.01039592056307810000	     -5.01640778495953120000	    -39.90988706988348200000	     12.81195721044993400000	     -0.00000000000011506760	     -0.00000000000030328213	     -9.31408767281192770000	      2.41412966369660700000	      0.50659398849950465000
      1.26200000000000000000	      2.03935476311084420000	      0.89834028923736642000	     -0.25907899549345642000	      1.11496568870681780000	     -0.77473137251150337000	      4.36991612347767870000	     -0.81530581563016413000	      3.33838540758495220000	      7.01198655735964940000	    -10.70217629089420300000	      9.94608003948392750000	     -0.00000000000007791278	      0.00000000000010688422	      8.99903804102523170000	     -6.99424597511004190000	     -5.00523082990767860000	    -39.86907849799018800000	     12.82247348566372800000	     -0.00000000000011514207	     -0.00000000000030400913	     -9.32326940281557090000	      2.40858445025079250000	      0.51091873101054841000
      1.26299999999999990000	      2.03977320282227480000	      0.89833499863412047000	     -0.25912001898523712000	      1.11682990182969030000	     -0.77034156641217555000	      4.37154185995470980000	     -0.84872825540922414000	      3.33134022905620150000	      6.99462079222143720000	    -10.69859939198012500000	      9.96105069647190790000	     -0.00000000000007789680	      0.00000000000010732397	      9.08576890929613870000	     -6.97800713380782420000	     -4.99386364183416730000	    -39.82726425484951700000	     12.83201178545290800000	     -0.00000000000011521721	     -0.00000000000030473540	     -9.33236479509026040000	      2.40284268066805540000	      0.51554766129079332000
      1.26400000000000000000	      2.04019125306441840000	      0.89832955378094947000	     -0.25916055091881302000	      1.11861945126776960000	     -0.76595508628910014000	      4.37292897690533880000	     -0.88197948162594730000	      3.32433481282010180000	      6.97736359709174270000	    -10.69518776917246300000	      9.97607676587406720000	     -0.00000000000007789188	      0.00000000000010779159	      9.17227695670663220000	     -6.96167944287576470000	     -4.98230944784409410000	    -39.78444351578292500000	     12.84057944154110200000	     -0.00000000000011529254	     -0.00000000000030546168	     -9.34137197062980820000	      2.39689840969988090000	      0.52048702882604003000
      1.26499999999999990000	      2.04060892287207810000	      0.89832395587289515000	     -0.25920058007635066000	      1.12033372450241630000	     -0.76156990936486313000	      4.37407347429387540000	     -0.91506095769271689000	      3.31736830418312010000	      6.96021975364646120000	    -10.69193888061075800000	      9.99115923533781470000	     -0.00000000000007790296	      0.00000000000010831587	      9.25855743467728050000	     -6.94526290834646960000	     -4.97057143205244230000	    -39.74061553633095700000	     12.84818439663113700000	     -0.00000000000011536755	     -0.00000000000030618881	     -9.35028917622613950000	      2.39074615795292860000	      0.52574259011833901000
      1.26600000000000000000	      2.04102622121176180000	      0.89831820619559033000	     -0.25924009643646473000	      1.12197222258903380000	     -0.75718410149569682000	      4.37497147651514860000	     -0.94797430670961935000	      3.31043982387106750000	      6.94319391792354420000	    -10.68885002204030600000	     10.00629888112738700000	     -0.00000000000007789269	      0.00000000000010877068	      9.34460549626919070000	     -6.92875749908528340000	     -4.95865273335806920000	    -39.69577965614571700000	     12.85483519849758800000	     -0.00000000000011544374	     -0.00000000000030691769	     -9.35911478644710120000	      2.38438092676683280000	      0.53131959893907676000
      1.26699999999999990000	      2.04144315697863910000	      0.89831230612557322000	     -0.25927909120416714000	      1.12353456161908220000	     -0.75279582232273079000	      4.37561923736963810000	     -0.98072131140985774000	      3.30354847130762770000	      6.92629061242837010000	    -10.68591832700379000000	     10.02149626251397800000	     -0.00000000000007788351	      0.00000000000010920139	      9.43041619795683240000	     -6.91216314984174750000	     -4.94655644324149430000	    -39.64993530286387400000	     12.86054099382168800000	     -0.00000000000011551936	     -0.00000000000030764525	     -9.36784730560468230000	      2.37779821296198970000	      0.53722279665657358000
      1.26800000000000000000	      2.04185973899331550000	      0.89830625713010037000	     -0.25931755683631963000	      1.12502047391007640000	     -0.74840333030425144000	      4.37601314479342920000	     -1.01330391401328220000	      3.29669332840905800000	      6.90951421726809830000	    -10.68314076601069100000	     10.03675171448779900000	     -0.00000000000007786303	      0.00000000000010966673	      9.51598450175051450000	     -6.89547976458601490000	     -4.93428560378531600000	    -39.60308199585519900000	     12.86531151978620200000	     -0.00000000000011559424	     -0.00000000000030837397	     -9.37648536954580790000	      2.37099402220275610000	      0.54345640305343357000
      1.26899999999999990000	      2.04227597599708810000	      0.89830006076594826000	     -0.25935548705491701000	      1.12642980828507080000	     -0.74400498713707963000	      4.37614972470836780000	     -1.04572421500149230000	      3.28987346296949750000	      6.89286896412451090000	    -10.68051414743625900000	     10.05206534855939400000	     -0.00000000000007782683	      0.00000000000011012452	      9.60130527826039070000	     -6.87870721983897140000	     -4.92184320638841030000	    -39.55521934962151000000	     12.86915709002380100000	     -0.00000000000011566889	     -0.00000000000030910364	     -9.38502774687001740000	      2.36396487848141930000	      0.55002410854777550000
      1.27000000000000000000	      2.04269187664532880000	      0.89829371867844343000	     -0.25939287685207435000	      1.12776252983649190000	     -0.73959926187170277000	      4.37602564434009360000	     -1.07798447108986320000	      3.28308793089992750000	      6.87635893280730940000	    -10.67803512108298000000	     10.06743705569472200000	     -0.00000000000007778035	      0.00000000000011061145	      9.68637331009956880000	     -6.86184536752947150000	     -4.90923219090466030000	    -39.50634707704274700000	     12.87208857772981200000	     -0.00000000000011574377	     -0.00000000000030983391	     -9.39347333993030630000	      2.35670783146201450000	      0.55692906714580759000
      1.27099999999999990000	      2.04310744950058430000	      0.89828723260068455000	     -0.25942972249297225000	      1.12901871969236560000	     -0.73518473511335880000	      4.37563771557954160000	     -1.11008709346984190000	      3.27633577874218320000	      6.85998804635125390000	    -10.67570018062199100000	     10.08286650585587400000	     -0.00000000000007772787	      0.00000000000011109012	      9.77118329524541810000	     -6.84489403788137270000	     -4.89645544480768710000	    -39.45646499264788100000	     12.87411739840150400000	     -0.00000000000011581824	     -0.00000000000031056292	     -9.40182118588810840000	      2.34922046357077760000	      0.56417388938029922000
      1.27200000000000000000	      2.04352270302578280000	      0.89828060435274104000	     -0.25946602151862236000	      1.13019857479616000000	     -0.73076010324456830000	      4.37498289837083560000	     -1.14203464614567700000	      3.26961604629304190000	      6.84376006577633160000	    -10.67350566568179600000	     10.09835314730668500000	     -0.00000000000007766146	      0.00000000000011158406	      9.85572985038358060000	     -6.82785304232405200000	     -4.88351580234834780000	    -39.40557301589685600000	     12.87525549258301500000	     -0.00000000000011589266	     -0.00000000000031129078	     -9.41007045778382260000	      2.34150089709062080000	      0.57176063522251575000
